:SAMPLES-PER-SECOND 30
:FULLY-SPECIFIED
:DEGREES
807
root  18.9339 38.9142 9.85005 -14.0034 67.304 -12.3656
RightUpLeg  -13.1271 -16.4169 2.87128
RightLeg  27.3256 0.119295 -0.133269
RightFoot  -9.93733 -0.049687 -1.44335
RightToes  0.00048216 0.542163 -0.142577
Spine  15.8335 -2.06057 11.5857
Spine1  8.7534 0.358735 -1.19788
HEad  6.88459 20.8947 -6.81942
LeftShoulder1  6.72894 -10.3502 -42.1666
LeftArm  -11.1703 5.65434 -34.0269
LeftForeArm  41.6331 -41.5513 -7.22408
LeftHand  -0.25398 0.0180481 5.50724
RightShoulder  4.38508 7.96604 32.2894
RightArm  -10.1477 -9.26983 31.3461
RightForeArm  -1.35925 18.6342 5.18143
RightHand  -1.64972 4.54665 -19.4855
LeftUpLeg  -16.3175 4.46926 6.72776
LeftLeg  64.2552 2.90518 7.19146
LeftFoot  3.47662 0.412938 -3.30966
LeftToes  1.06244e-005 4.65855e-005 -8.18506e-006
808
root  20.2035 39.2065 10.564 -12.6687 67.2434 -10.7522
RightUpLeg  -9.13055 -16.224 1.53112
RightLeg  25.0319 0.0430763 0.34789
RightFoot  -11.072 -0.0716238 -1.26995
RightToes  0.00048216 0.542163 -0.142577
Spine  15.1899 -1.22109 11.7237
Spine1  8.61159 1.37254 -2.46298
HEad  7.93508 20.9156 -7.43565
LeftShoulder1  6.762 -10.4255 -42.1436
LeftArm  -11.211 7.28279 -32.6633
LeftForeArm  39.7333 -39.5553 -6.75376
LeftHand  -0.25398 0.0180481 5.50724
RightShoulder  4.34236 7.88878 32.1735
RightArm  -9.40847 -5.63161 29.2047
RightForeArm  -1.83742 20.208 5.03833
RightHand  -1.68738 4.72075 -19.5503
LeftUpLeg  -19.9617 7.01862 4.7524
LeftLeg  59.981 3.80332 7.65339
LeftFoot  0.857279 0.226231 -2.1923
LeftToes  1.06244e-005 4.65855e-005 -8.18506e-006
809
root  21.4744 39.4085 11.2601 -11.5923 67.3514 -9.32521
RightUpLeg  -5.00571 -14.9826 0.0671648
RightLeg  22.6847 -1.1088 0.92175
RightFoot  -12.3788 -0.0900114 -0.735374
RightToes  0.00048216 0.542163 -0.142577
Spine  14.6148 -0.506468 11.5743
Spine1  8.52873 2.1523 -3.51557
HEad  8.58921 21.2503 -8.19119
LeftShoulder1  6.79558 -10.4772 -42.2003
LeftArm  -11.2843 8.98416 -31.2132
LeftForeArm  37.8981 -37.1533 -6.20021
LeftHand  -0.25398 0.0180481 5.50724
RightShoulder  4.2979 7.89819 31.7503
RightArm  -9.17602 -2.06431 27.6493
RightForeArm  -2.24759 21.1878 5.0046
RightHand  -1.59062 4.38402 -19.0743
LeftUpLeg  -22.4187 10.136 2.71119
LeftLeg  52.82 4.67271 7.0439
LeftFoot  -1.55764 0.237196 -2.67239
LeftToes  1.06244e-005 4.65855e-005 -8.18506e-006
810
root  22.7708 39.4652 11.9275 -11.7307 67.7393 -9.34248
RightUpLeg  -1.27378 -13.5089 -0.719183
RightLeg  20.7977 -2.71422 1.47785
RightFoot  -13.7466 -0.0982419 -0.228858
RightToes  0.00048216 0.542163 -0.142577
Spine  13.8634 -0.0297677 11.9736
Spine1  8.51573 2.72054 -4.51462
HEad  8.74763 21.4321 -8.89235
LeftShoulder1  6.84776 -10.5681 -42.2541
LeftArm  -11.3024 10.5081 -29.8031
LeftForeArm  35.9729 -34.0393 -5.50864
LeftHand  -0.25398 0.0180481 5.50724
RightShoulder  4.22287 7.87743 31.1552
RightArm  -8.8238 1.32941 26.5985
RightForeArm  -3.59633 21.7455 5.07415
RightHand  -1.58502 4.3858 -19.0044
LeftUpLeg  -23.875 14.0677 0.741672
LeftLeg  43.0379 5.26102 5.62217
LeftFoot  -2.60604 0.280076 -3.45205
LeftToes  1.06244e-005 4.65855e-005 -8.18506e-006
811
root  24.1008 39.4353 12.575 -12.8892 68.0885 -10.5503
RightUpLeg  2.31637 -11.7024 -0.715038
RightLeg  18.8725 -4.75728 1.82783
RightFoot  -14.8227 -0.104238 -0.115092
RightToes  0.00048216 0.542163 -0.142577
Spine  12.9821 0.348975 12.9329
Spine1  8.69507 3.34985 -5.8848
HEad  8.43665 21.4534 -9.54519
LeftShoulder1  6.89122 -10.6899 -42.1517
LeftArm  -11.3584 11.8823 -28.5867
LeftForeArm  33.8999 -30.4583 -4.7646
LeftHand  -0.25398 0.0180481 5.50724
RightShoulder  4.15413 7.83744 30.6754
RightArm  -8.16581 4.44946 25.7391
RightForeArm  -5.33071 22.0656 5.1741
RightHand  -1.62174 4.49237 -19.2311
LeftUpLeg  -24.386 20.2573 -1.93662
LeftLeg  30.7637 4.06985 3.41746
LeftFoot  -2.8461 0.284872 -3.61058
LeftToes  1.06244e-005 4.65855e-005 -8.18506e-006
812
root  25.4611 39.344 13.2219 -13.9784 68.3107 -11.4993
RightUpLeg  6.17989 -10.2271 -0.62252
RightLeg  16.7255 -6.49067 2.10966
RightFoot  -15.9568 -0.10379 0.094955
RightToes  0.00048216 0.542163 -0.142577
Spine  12.2242 0.691953 13.4812
Spine1  9.28568 4.06135 -7.29205
HEad  7.77982 21.6824 -10.3291
LeftShoulder1  6.90089 -10.7771 -41.9393
LeftArm  -11.8317 13.5308 -27.5526
LeftForeArm  31.7838 -27.1665 -4.13855
LeftHand  -0.25398 0.0180481 5.50724
RightShoulder  4.15267 7.89853 30.4634
RightArm  -7.3734 7.44192 24.9372
RightForeArm  -6.29268 21.9363 5.23717
RightHand  -1.62229 4.39987 -19.4113
LeftUpLeg  -23.1383 25.1697 -3.88057
LeftLeg  16.5974 4.50212 -0.165098
LeftFoot  -2.42982 0.356459 -4.35578
LeftToes  1.06244e-005 4.65855e-005 -8.18506e-006
813
root  26.8994 39.1082 13.8738 -15.4695 68.8201 -12.5556
RightUpLeg  10.196 -9.91835 -0.792446
RightLeg  15.3334 -7.25398 2.47953
RightFoot  -17.6446 -0.0576246 1.08968
RightToes  0.00048216 0.542163 -0.142577
Spine  11.4902 0.883201 13.4086
Spine1  9.97495 4.45483 -8.06896
HEad  7.12459 22.1719 -10.9932
LeftShoulder1  6.87575 -10.7996 -41.705
LeftArm  -12.6555 15.739 -26.6213
LeftForeArm  29.5972 -24.5297 -3.69772
LeftHand  -0.25398 0.0180481 5.50724
RightShoulder  4.20848 8.04491 30.4853
RightArm  -6.64007 10.3058 24.427
RightForeArm  -6.22274 21.1284 5.29731
RightHand  -1.69042 4.60961 -19.7922
LeftUpLeg  -18.5525 15.497 1.06729
LeftLeg  2.32872 21.6968 -7.13159
LeftFoot  -1.48262 0.549755 -6.29836
LeftToes  1.06244e-005 4.65855e-005 -8.18506e-006
814
root  28.4718 38.6706 14.5242 -18.5738 69.8281 -15.2332
RightUpLeg  13.7578 -10.8253 -0.887266
RightLeg  15.81 -7.09295 2.66498
RightFoot  -19.6256 0.0507388 2.54689
RightToes  0.00048216 0.542163 -0.142577
Spine  10.4674 0.943205 13.4851
Spine1  10.299 4.43071 -8.32871
HEad  7.01953 22.6203 -10.9072
LeftShoulder1  6.81075 -10.7725 -41.3647
LeftArm  -13.3599 18.2223 -25.8282
LeftForeArm  27.4916 -22.2711 -3.43665
LeftHand  -0.25398 0.0180481 5.50724
RightShoulder  4.24498 8.10008 30.6288
RightArm  -6.16225 12.4251 24.4867
RightForeArm  -5.90755 20.1724 5.42086
RightHand  -1.97647 5.69641 -20.8482
LeftUpLeg  -16.6664 6.40222 4.1189
LeftLeg  -7.13992 39.3764 -13.3565
LeftFoot  -2.25089 0.716964 -8.86111
LeftToes  1.06244e-005 4.65855e-005 -8.18506e-006
815
root  30.0997 38.2479 15.1612 -21.0359 71.3188 -17.6874
RightUpLeg  16.7129 -13.2574 -1.73433
RightLeg  17.0049 -5.31552 2.53309
RightFoot  -20.7065 0.203282 4.18325
RightToes  0.00048216 0.542163 -0.142577
Spine  9.25661 1.09169 13.0438
Spine1  10.6761 4.59014 -8.66236
HEad  7.58121 22.8959 -10.147
LeftShoulder1  6.71659 -10.6965 -40.9821
LeftArm  -14.0342 20.5568 -25.0926
LeftForeArm  26.1873 -20.3075 -3.35125
LeftHand  -0.25398 0.0180481 5.50724
RightShoulder  4.24165 8.008 30.896
RightArm  -5.95476 12.9459 25
RightForeArm  -6.20798 20.1382 5.452
RightHand  -2.47474 7.43857 -22.5258
LeftUpLeg  -16.7086 6.54185 2.79522
LeftLeg  -9.22072 46.7708 -15.4151
LeftFoot  -3.44526 0.596879 -8.28996
LeftToes  1.06244e-005 4.65855e-005 -8.18506e-006
816
root  31.7833 37.9012 15.7917 -20.4791 72.9866 -17.2239
RightUpLeg  19.3748 -18.4258 -5.07236
RightLeg  19.2555 0.398505 2.38227
RightFoot  -21.0651 0.47896 7.24776
RightToes  0.00048216 0.542163 -0.142577
Spine  8.15429 1.68563 11.2018
Spine1  11.257 5.24609 -8.84209
HEad  8.01306 22.9821 -9.82025
LeftShoulder1  6.65287 -10.573 -40.9465
LeftArm  -14.8686 22.6572 -24.0677
LeftForeArm  25.7908 -19.0867 -3.25574
LeftHand  -0.25398 0.0180481 5.50724
RightShoulder  4.29272 7.95016 31.5324
RightArm  -6.06504 11.6059 25.5431
RightForeArm  -7.04189 21.387 5.33175
RightHand  -3.02521 9.12113 -24.2922
LeftUpLeg  -16.9891 7.25108 0.765725
LeftLeg  -6.07968 49.8226 -14.8044
LeftFoot  -4.01112 0.0977623 -1.19027
LeftToes  1.06244e-005 4.65855e-005 -8.18506e-006
817
root  33.5239 37.6185 16.3988 -16.3586 75.2589 -12.7435
RightUpLeg  21.1339 -23.1273 -10.1915
RightLeg  24.3198 6.46124 2.69443
RightFoot  -19.5666 0.750966 12.5065
RightToes  0.00048216 0.542163 -0.142577
Spine  7.68316 2.49668 7.84551
Spine1  11.5728 5.9084 -8.56457
HEad  8.36571 22.7137 -9.69642
LeftShoulder1  6.66097 -10.4682 -41.3315
LeftArm  -15.8212 24.4183 -22.6392
LeftForeArm  25.6694 -18.6356 -3.11223
LeftHand  -0.25398 0.0180481 5.50724
RightShoulder  4.48107 8.08686 32.717
RightArm  -6.56591 8.89359 26.0027
RightForeArm  -8.04444 23.0671 5.37349
RightHand  -3.44345 10.2058 -25.6696
LeftUpLeg  -19.08 13.761 -4.73492
LeftLeg  4.3587 42.9359 -7.17488
LeftFoot  -4.45419 -0.56558 9.89087
LeftToes  1.06244e-005 4.65855e-005 -8.18506e-006
818
root  35.2621 37.3877 16.9252 -10.1128 78.5061 -5.59917
RightUpLeg  19.5954 -21.7692 -13.2927
RightLeg  33.9168 5.63615 3.78446
RightFoot  -12.418 0.0696235 17.1306
RightToes  0.00048216 0.542163 -0.142577
Spine  8.24312 2.96761 4.80039
Spine1  11.1996 6.23441 -8.66493
HEad  9.10801 21.7543 -9.16426
LeftShoulder1  6.69467 -10.4729 -41.5423
LeftArm  -16.7116 25.3529 -21.4126
LeftForeArm  25.1751 -18.2389 -2.96977
LeftHand  -0.25398 0.0180481 5.50724
RightShoulder  4.74907 8.35391 34.1012
RightArm  -6.82266 5.63444 26.874
RightForeArm  -9.69416 23.9938 5.5972
RightHand  -3.60026 10.522 -26.275
LeftUpLeg  -23.2861 28.9703 -15.2156
LeftLeg  15.534 23.9405 3.57953
LeftFoot  -5.61997 -0.874997 18.0289
LeftToes  1.06244e-005 4.65855e-005 -8.18506e-006
